<mxfile host="app.diagrams.net" modified="2023-11-07T06:16:45.764Z" agent="Mozilla/5.0 (Windows NT 10.0; Win64; x64) AppleWebKit/537.36 (KHTML, like Gecko) Chrome/118.0.0.0 Safari/537.36" etag="-Sn3IP8NYn3o7g7KgBrf" version="22.0.8" type="google">
  <diagram name="Page-1" id="GfIFseUGChnsdXNAOinP">
    <mxGraphModel dx="1134" dy="719" grid="1" gridSize="10" guides="1" tooltips="1" connect="1" arrows="1" fold="1" page="1" pageScale="1" pageWidth="850" pageHeight="1100" math="0" shadow="0">
      <root>
        <mxCell id="0" />
        <mxCell id="1" parent="0" />
        <mxCell id="Ixe8uzc6GEf6t0OTP452-5" style="edgeStyle=orthogonalEdgeStyle;rounded=0;orthogonalLoop=1;jettySize=auto;html=1;exitX=1;exitY=0.5;exitDx=0;exitDy=0;entryX=0.5;entryY=0;entryDx=0;entryDy=0;" edge="1" parent="1" source="Ixe8uzc6GEf6t0OTP452-3" target="Ixe8uzc6GEf6t0OTP452-4">
          <mxGeometry relative="1" as="geometry" />
        </mxCell>
        <mxCell id="Ixe8uzc6GEf6t0OTP452-3" value="&lt;font style=&quot;font-size: 24px;&quot;&gt;Start&lt;/font&gt;&lt;br&gt;Display welcome&lt;br&gt;message" style="ellipse;whiteSpace=wrap;html=1;" vertex="1" parent="1">
          <mxGeometry x="70" y="40" width="120" height="80" as="geometry" />
        </mxCell>
        <mxCell id="Ixe8uzc6GEf6t0OTP452-12" style="edgeStyle=orthogonalEdgeStyle;rounded=0;orthogonalLoop=1;jettySize=auto;html=1;exitX=0;exitY=0.5;exitDx=0;exitDy=0;entryX=0.5;entryY=0;entryDx=0;entryDy=0;" edge="1" parent="1" source="Ixe8uzc6GEf6t0OTP452-4" target="Ixe8uzc6GEf6t0OTP452-8">
          <mxGeometry relative="1" as="geometry" />
        </mxCell>
        <mxCell id="Ixe8uzc6GEf6t0OTP452-15" style="edgeStyle=orthogonalEdgeStyle;rounded=0;orthogonalLoop=1;jettySize=auto;html=1;exitX=1;exitY=0.5;exitDx=0;exitDy=0;entryX=0.5;entryY=0;entryDx=0;entryDy=0;" edge="1" parent="1" source="Ixe8uzc6GEf6t0OTP452-4" target="Ixe8uzc6GEf6t0OTP452-14">
          <mxGeometry relative="1" as="geometry" />
        </mxCell>
        <mxCell id="Ixe8uzc6GEf6t0OTP452-4" value="&lt;font style=&quot;&quot;&gt;&lt;font style=&quot;font-size: 18px;&quot;&gt;Guest &lt;/font&gt;&lt;br&gt;&lt;/font&gt;or&lt;br&gt;&lt;font style=&quot;font-size: 24px;&quot;&gt;&amp;nbsp;&lt;/font&gt;&lt;font style=&quot;font-size: 18px;&quot;&gt;User&lt;/font&gt;" style="rhombus;whiteSpace=wrap;html=1;" vertex="1" parent="1">
          <mxGeometry x="377" y="120" width="120" height="120" as="geometry" />
        </mxCell>
        <mxCell id="Ixe8uzc6GEf6t0OTP452-13" style="edgeStyle=orthogonalEdgeStyle;rounded=0;orthogonalLoop=1;jettySize=auto;html=1;exitX=0.5;exitY=1;exitDx=0;exitDy=0;" edge="1" parent="1" source="Ixe8uzc6GEf6t0OTP452-8">
          <mxGeometry relative="1" as="geometry">
            <mxPoint x="160" y="340" as="targetPoint" />
          </mxGeometry>
        </mxCell>
        <mxCell id="Ixe8uzc6GEf6t0OTP452-8" value="&lt;font style=&quot;font-size: 18px;&quot;&gt;&lt;u&gt;User input&lt;br&gt;&lt;/u&gt;&lt;/font&gt;Vehicle&lt;br&gt;Fuel&lt;br&gt;Distance" style="shape=parallelogram;perimeter=parallelogramPerimeter;whiteSpace=wrap;html=1;fixedSize=1;" vertex="1" parent="1">
          <mxGeometry x="85" y="220" width="150" height="80" as="geometry" />
        </mxCell>
        <mxCell id="Ixe8uzc6GEf6t0OTP452-25" style="edgeStyle=orthogonalEdgeStyle;rounded=0;orthogonalLoop=1;jettySize=auto;html=1;exitX=0.5;exitY=1;exitDx=0;exitDy=0;entryX=0.5;entryY=0;entryDx=0;entryDy=0;" edge="1" parent="1" source="Ixe8uzc6GEf6t0OTP452-10" target="Ixe8uzc6GEf6t0OTP452-17">
          <mxGeometry relative="1" as="geometry" />
        </mxCell>
        <mxCell id="Ixe8uzc6GEf6t0OTP452-10" value="&lt;font style=&quot;font-size: 14px;&quot;&gt;Process&lt;br&gt;the&lt;br&gt;information&lt;/font&gt;" style="whiteSpace=wrap;html=1;aspect=fixed;" vertex="1" parent="1">
          <mxGeometry x="95" y="340" width="130" height="130" as="geometry" />
        </mxCell>
        <mxCell id="Ixe8uzc6GEf6t0OTP452-21" style="edgeStyle=orthogonalEdgeStyle;rounded=0;orthogonalLoop=1;jettySize=auto;html=1;exitX=0.5;exitY=1;exitDx=0;exitDy=0;" edge="1" parent="1" source="Ixe8uzc6GEf6t0OTP452-11" target="Ixe8uzc6GEf6t0OTP452-18">
          <mxGeometry relative="1" as="geometry" />
        </mxCell>
        <mxCell id="Ixe8uzc6GEf6t0OTP452-11" value="&lt;font style=&quot;font-size: 14px;&quot;&gt;Process&lt;br&gt;the&amp;nbsp;&lt;br&gt;information&lt;/font&gt;" style="whiteSpace=wrap;html=1;aspect=fixed;" vertex="1" parent="1">
          <mxGeometry x="655" y="340" width="130" height="130" as="geometry" />
        </mxCell>
        <mxCell id="Ixe8uzc6GEf6t0OTP452-16" value="" style="edgeStyle=orthogonalEdgeStyle;rounded=0;orthogonalLoop=1;jettySize=auto;html=1;" edge="1" parent="1" source="Ixe8uzc6GEf6t0OTP452-14" target="Ixe8uzc6GEf6t0OTP452-11">
          <mxGeometry relative="1" as="geometry" />
        </mxCell>
        <mxCell id="Ixe8uzc6GEf6t0OTP452-14" value="&lt;font style=&quot;font-size: 18px;&quot;&gt;&lt;u&gt;User input&lt;br&gt;&lt;/u&gt;&lt;/font&gt;Vehicle&lt;br&gt;Fuel&lt;br&gt;Distance" style="shape=parallelogram;perimeter=parallelogramPerimeter;whiteSpace=wrap;html=1;fixedSize=1;" vertex="1" parent="1">
          <mxGeometry x="640" y="220" width="160" height="80" as="geometry" />
        </mxCell>
        <mxCell id="Ixe8uzc6GEf6t0OTP452-24" style="edgeStyle=orthogonalEdgeStyle;rounded=0;orthogonalLoop=1;jettySize=auto;html=1;exitX=1;exitY=0.5;exitDx=0;exitDy=0;entryX=0;entryY=0.5;entryDx=0;entryDy=0;" edge="1" parent="1" source="Ixe8uzc6GEf6t0OTP452-17" target="Ixe8uzc6GEf6t0OTP452-20">
          <mxGeometry relative="1" as="geometry" />
        </mxCell>
        <mxCell id="Ixe8uzc6GEf6t0OTP452-17" value="&lt;font style=&quot;font-size: 14px;&quot;&gt;Display&amp;nbsp;&lt;br&gt;the&lt;br&gt;output&lt;/font&gt;" style="rounded=1;whiteSpace=wrap;html=1;" vertex="1" parent="1">
          <mxGeometry x="80" y="510" width="160" height="80" as="geometry" />
        </mxCell>
        <mxCell id="Ixe8uzc6GEf6t0OTP452-18" value="&lt;font style=&quot;font-size: 14px;&quot;&gt;Display&amp;nbsp;&lt;br&gt;the&lt;br&gt;output&lt;/font&gt;" style="rounded=1;whiteSpace=wrap;html=1;" vertex="1" parent="1">
          <mxGeometry x="640" y="520" width="160" height="60" as="geometry" />
        </mxCell>
        <mxCell id="Ixe8uzc6GEf6t0OTP452-19" value="Store&lt;br&gt;each information processed" style="shape=cylinder3;whiteSpace=wrap;html=1;boundedLbl=1;backgroundOutline=1;size=15;" vertex="1" parent="1">
          <mxGeometry x="497" y="495" width="90" height="110" as="geometry" />
        </mxCell>
        <mxCell id="Ixe8uzc6GEf6t0OTP452-20" value="&lt;font style=&quot;font-size: 18px;&quot;&gt;End&lt;/font&gt;" style="ellipse;whiteSpace=wrap;html=1;" vertex="1" parent="1">
          <mxGeometry x="390" y="690" width="120" height="80" as="geometry" />
        </mxCell>
        <mxCell id="Ixe8uzc6GEf6t0OTP452-22" style="edgeStyle=orthogonalEdgeStyle;rounded=0;orthogonalLoop=1;jettySize=auto;html=1;exitX=0;exitY=0.5;exitDx=0;exitDy=0;entryX=1;entryY=0.5;entryDx=0;entryDy=0;entryPerimeter=0;" edge="1" parent="1" source="Ixe8uzc6GEf6t0OTP452-18" target="Ixe8uzc6GEf6t0OTP452-19">
          <mxGeometry relative="1" as="geometry" />
        </mxCell>
        <mxCell id="Ixe8uzc6GEf6t0OTP452-23" style="edgeStyle=orthogonalEdgeStyle;rounded=0;orthogonalLoop=1;jettySize=auto;html=1;exitX=0;exitY=0.5;exitDx=0;exitDy=0;exitPerimeter=0;entryX=0.427;entryY=-0.005;entryDx=0;entryDy=0;entryPerimeter=0;" edge="1" parent="1" source="Ixe8uzc6GEf6t0OTP452-19" target="Ixe8uzc6GEf6t0OTP452-20">
          <mxGeometry relative="1" as="geometry" />
        </mxCell>
      </root>
    </mxGraphModel>
  </diagram>
</mxfile>
